<?xml version="1.0" encoding="utf-8"?>
<!-- Generator: Adobe Illustrator 25.1.0, SVG Export Plug-In . SVG Version: 6.00 Build 0)  -->
<svg version="1.1" id="레이어_1" xmlns="http://www.w3.org/2000/svg" xmlns:xlink="http://www.w3.org/1999/xlink" x="0px"
	 y="0px" viewBox="0 0 897.42 999.69" style="enable-background:new 0 0 897.42 999.69;" xml:space="preserve">
<style type="text/css">
	.st0{fill:#FF334E;}
</style>
<path class="st0" d="M13.48,294.29c4.32,12.51,9.36,24.62,14.16,35.83c7.39,17.25,15.12,34.54,22.61,51.25l0.59,1.33
	c66.74,149.25,138.38,300.55,212.92,449.68l3.16,6.33c7.6,15.23,15.46,30.97,23.53,46.45c9.57,19.58,21.17,38.03,34.62,55.02
	c15.13,18.64,34.05,33.64,55.42,43.92c21.37,10.29,44.66,15.62,68.25,15.61c23.58,0,46.88-5.34,68.24-15.63
	c21.36-10.29,40.28-25.29,55.4-43.94c13.43-16.99,25.03-35.44,34.6-55.01c8.14-15.61,16.07-31.5,23.74-46.87l2.94-5.88
	c74.54-149.14,146.18-300.43,212.92-449.67l0.97-2.17c7.35-16.44,14.96-33.43,22.22-50.4c4.8-11.21,9.84-23.3,14.16-35.84
	c12.38-34.17,16.32-70.98,11.48-107.11c-5.14-36.51-19.44-71.01-41.49-100.08c-22.05-29.06-51.08-51.69-84.23-65.63
	c-25.03-10.46-51.8-15.8-78.81-15.74c-8.48,0-16.96,0.51-25.39,1.53c-34.16,4.49-67.11,15.97-96.91,33.76
	c-39.09,22.68-77.7,55.91-119.87,103.41c-42.18-47.49-80.78-80.73-119.87-103.41c-29.8-17.79-62.75-29.27-96.91-33.76
	c-8.43-1.01-16.91-1.52-25.39-1.53c-27.01-0.06-53.77,5.28-78.8,15.74C94.59,35.41,65.55,58.03,43.5,87.1
	C21.45,116.16,7.14,150.66,2.01,187.17C-2.83,223.31,1.11,260.11,13.48,294.29z M448.71,242.51c52.21,68.34,85.71,131.8,97.47,185
	c4.82,19.94,5.95,40.63,3.35,61c-2.05,14.93-7.37,29.19-15.54,41.7c-10.05,13.46-22.97,24.36-37.76,31.87
	c-14.79,7.5-31.05,11.4-47.53,11.4c-16.48,0-32.74-3.9-47.53-11.41c-14.79-7.5-27.7-18.4-37.76-31.87
	c-8.17-12.52-13.48-26.77-15.54-41.71c-2.6-20.38-1.46-41.08,3.37-61.02C363.02,374.27,396.51,310.83,448.71,242.51z M62.99,196.17
	c3.59-25.53,13.59-49.65,29.01-69.97c15.42-20.32,35.72-36.14,58.89-45.89c23.43-9.69,48.86-13.13,73.92-9.99
	c26.05,3.47,51.16,12.32,73.81,26.03c34.8,20.19,70.02,51.18,109.66,96.64c-63.1,80.34-102.5,154.4-117.09,220.36
	c-6.57,27.74-7.99,56.5-4.2,84.78c3.44,24.36,12.2,47.6,25.62,67.97c15.72,21.97,36.22,39.84,59.86,52.15
	c23.64,12.31,49.75,18.72,76.24,18.72c26.48,0,52.6-6.41,76.24-18.72s44.14-30.17,59.86-52.14c13.41-20.36,22.17-43.59,25.62-67.95
	c3.79-28.27,2.38-57.02-4.17-84.75c-14.58-65.99-53.98-140.06-117.1-220.43c39.64-45.46,74.86-76.45,109.66-96.64
	c22.65-13.71,47.76-22.57,73.81-26.03c25.07-3.14,50.5,0.29,73.93,9.99c23.17,9.75,43.47,25.57,58.89,45.89
	c15.42,20.32,25.42,44.45,29.01,69.98c3.45,25.95,0.51,52.38-8.54,76.86c-3.44,10-7.47,19.8-12.47,31.46
	c-7.06,16.49-14.56,33.25-21.81,49.45l-0.97,2.18c-66.37,148.41-137.61,298.86-211.75,447.18l-2.95,5.91
	c-7.55,15.12-15.35,30.76-23.23,45.86c-7.53,15.57-16.65,30.27-27.2,43.86c-9.35,11.66-21.08,21.05-34.35,27.49
	c-13.28,6.44-27.77,9.79-42.44,9.79c-14.67,0-29.17-3.34-42.44-9.78c-13.28-6.44-25.01-15.83-34.36-27.49
	c-10.56-13.57-19.68-28.27-27.2-43.84c-7.8-14.97-15.54-30.47-23.02-45.45l-3.17-6.35C244.4,654.98,173.16,504.53,106.78,356.1
	l-0.6-1.34c-7.38-16.48-15-33.51-22.18-50.29c-5-11.67-9.04-21.49-12.47-31.45C62.48,248.55,59.54,222.12,62.99,196.17z"/>
</svg>
